<?xml version="1.0" encoding="UTF-8" standalone="no"?>
<!-- Created with Inkscape (http://www.inkscape.org/) -->

<svg
   xmlns:dc="http://purl.org/dc/elements/1.1/"
   xmlns:cc="http://creativecommons.org/ns#"
   xmlns:rdf="http://www.w3.org/1999/02/22-rdf-syntax-ns#"
   xmlns:svg="http://www.w3.org/2000/svg"
   xmlns="http://www.w3.org/2000/svg"
   xmlns:sodipodi="http://sodipodi.sourceforge.net/DTD/sodipodi-0.dtd"
   xmlns:inkscape="http://www.inkscape.org/namespaces/inkscape"
   width="62.112106mm"
   height="56.458176mm"
   viewBox="0 0 62.112106 56.458174"
   version="1.1"
   id="svg6380"
   inkscape:version="0.92.3pre0 (unknown)"
   sodipodi:docname="balic_simple_default_icon.svg">
  <defs
     id="defs6374">
    <clipPath
       id="clipPath5506"
       clipPathUnits="userSpaceOnUse">
      <path
         inkscape:connector-curvature="0"
         id="path5504"
         d="M 556.325,738.829 H 312.504 V 461.082 h 243.821 z" />
    </clipPath>
  </defs>
  <sodipodi:namedview
     id="base"
     pagecolor="#ffffff"
     bordercolor="#666666"
     borderopacity="1.0"
     inkscape:pageopacity="0.0"
     inkscape:pageshadow="2"
     inkscape:zoom="15.839192"
     inkscape:cx="169.7748"
     inkscape:cy="44.977466"
     inkscape:document-units="mm"
     inkscape:current-layer="layer1"
     showgrid="false"
     inkscape:snap-global="false"
     fit-margin-top="0"
     fit-margin-left="0"
     fit-margin-right="0"
     fit-margin-bottom="0"
     inkscape:window-width="1920"
     inkscape:window-height="1043"
     inkscape:window-x="1920"
     inkscape:window-y="0"
     inkscape:window-maximized="1" />
  <metadata
     id="metadata6377">
    <rdf:RDF>
      <cc:Work
         rdf:about="">
        <dc:format>image/svg+xml</dc:format>
        <dc:type
           rdf:resource="http://purl.org/dc/dcmitype/StillImage" />
        <dc:title></dc:title>
      </cc:Work>
    </rdf:RDF>
  </metadata>
  <g
     inkscape:label="Layer 1"
     inkscape:groupmode="layer"
     id="layer1"
     transform="translate(-68.376278,-71.34206)">
    <g
       transform="translate(-0.38729714,-27.113582)"
       id="layer1-5"
       inkscape:label="Layer 1">
      <g
         transform="translate(-103.70058,16.036172)"
         id="g5748">
        <path
           inkscape:connector-curvature="0"
           style="display:inline;fill:#5781bd;fill-opacity:1;fill-rule:evenodd;stroke:none;stroke-width:0.26458332px;stroke-linecap:butt;stroke-linejoin:miter;stroke-opacity:1"
           d="m 195.03037,82.41947 -0.71933,0.859895 -1.20717,3.348633 -0.40514,3.745508 -0.66973,-1.86862 -1.0666,1.86862 1.20716,1.876888 -0.66972,1.339454 -1.20716,-2.273764 -0.27285,2.414323 1.33945,1.471745 -0.52917,1.604037 -1.74459,-1.876888 0.13229,2.009179 1.47174,1.744597 v 1.876883 l -1.0666,-0.669722 -1.7446,-1.339453 0.53744,2.406055 1.74459,1.48001 0.1323,1.87689 -1.61231,-0.27285 -2.14147,-1.33945 1.07487,3.34863 2.00918,0.66973 0.13229,1.47174 -1.74459,0.14056 -0.1323,4.01836 1.20717,0.13229 -0.26459,11.25306 h -2.00918 v 2.27376 l 0.93431,0.14056 v 1.1989 h 1.20716 v 1.74459 h -1.74459 v 2.14147 l 15.67656,0.1323 v -2.14148 h -1.7446 v -1.73632 h 1.20716 v -1.20716 l 0.93431,-0.1323 v -2.28203 h -2.00918 l -0.26458,-11.25306 1.20716,-0.13229 -0.13229,-4.01836 -1.7446,-0.13229 0.1323,-1.48001 2.00918,-0.66973 1.07487,-3.34863 -2.14148,1.33945 -1.6123,0.27285 0.13229,-1.87689 1.7446,-1.47174 0.53743,-2.414323 -1.74459,1.339453 -1.06661,0.66973 v -1.876892 l 1.47175,-1.736328 0.13229,-2.009179 -1.7446,1.868619 -0.52916,-1.604036 1.33945,-1.471745 -0.27285,-2.414323 -1.20716,2.282031 -0.66973,-1.339453 1.20716,-1.876888 -1.0666,-1.876888 -0.66972,1.876888 -0.40515,-3.753776 -1.49655,-3.811654 z m -2.04225,10.938867 h 3.55534 v 0.463021 h -3.55534 z m 4.19199,2.852539 v 0.463021 l -4.72116,0.115755 v -0.463021 z m 0.58705,3.439584 0.17363,0.57878 -5.71335,0.0579 -0.0579,-0.520902 z m -6.00274,3.43958 6.58151,0.0579 0.0579,0.5209 -6.69726,-0.0579 z m 7.16856,3.72897 0.11575,0.63666 -8.21862,0.11575 -0.0579,-0.46302 z m -5.42396,7.80521 2.56315,0.11576 1.4056,1.81074 0.11575,10.55026 -5.42396,-0.0579 -0.40514,-10.26087 z"
           id="path2406" />
        <path
           inkscape:connector-curvature="0"
           style="display:inline;fill:#5781bd;fill-opacity:1;fill-rule:evenodd;stroke:none;stroke-width:0.26458332px;stroke-linecap:butt;stroke-linejoin:miter;stroke-opacity:1"
           d="m 174.17455,131.26136 -0.13397,-2.00949 2.14346,-1.33967 0.4019,-3.88502 c 0,0 -3.49636,-2.49983 -4.01899,-4.15295 -0.46606,-1.47422 0.8038,-5.09072 0.8038,-5.09072 0,0 0.34049,2.58878 1.07173,3.34916 0.65214,0.67813 2.94726,1.07173 2.94726,1.07173 0,0 -1.77992,-2.20014 -2.0095,-3.34916 -0.2706,-1.35438 0.66984,-4.55485 0.66984,-4.55485 0,0 0.86717,2.70832 1.74156,3.48312 0.44717,0.39624 1.87553,0.66983 1.87553,0.66983 l 0.13396,-1.74156 c 0,0 -1.57313,-1.24231 -1.87553,-2.00949 -0.42739,-1.08432 0,-3.88502 0,-3.88502 0,0 0.77862,2.16158 1.47363,2.81329 0.28874,0.27075 1.2057,0.53586 1.2057,0.53586 l 0.66983,-2.27742 c 0,0 -1.12216,-0.81456 -1.33966,-1.33967 -0.35374,-0.854 0,-3.08122 0,-3.08122 0,0 0.5913,2.01611 1.33966,2.27743 0.52849,0.18454 1.74156,-0.66983 1.74156,-0.66983 0,0 -1.34042,-1.17248 -1.47363,-1.87553 -0.15622,-0.82452 0.8038,-2.67933 0.8038,-2.67933 l 1.6076,2.8133 v -1.87553 l -0.8038,-1.74156 2.67932,-2.411391 0.13397,32.955691 z"
           id="path2404"
           sodipodi:nodetypes="ccccscscscsccscsccscscsccccccc" />
        <path
           inkscape:connector-curvature="0"
           sodipodi:nodetypes="ccccscscscsccscsccscscsccccccc"
           id="path2417"
           d="m 216.30623,131.49914 0.13397,-2.00949 -2.14346,-1.33967 -0.4019,-3.88502 c 0,0 3.49636,-2.49983 4.01899,-4.15295 0.46606,-1.47422 -0.8038,-5.09072 -0.8038,-5.09072 0,0 -0.34049,2.58878 -1.07173,3.34916 -0.65214,0.67813 -2.94726,1.07173 -2.94726,1.07173 0,0 1.77992,-2.20014 2.0095,-3.34916 0.2706,-1.35438 -0.66984,-4.55485 -0.66984,-4.55485 0,0 -0.86717,2.70832 -1.74156,3.48312 -0.44717,0.39624 -1.87553,0.66983 -1.87553,0.66983 l -0.13396,-1.74156 c 0,0 1.57313,-1.24231 1.87553,-2.00949 0.42739,-1.08432 0,-3.88502 0,-3.88502 0,0 -0.77862,2.16158 -1.47363,2.81329 -0.28874,0.27075 -1.2057,0.53586 -1.2057,0.53586 l -0.66983,-2.27742 c 0,0 1.12216,-0.81456 1.33966,-1.33967 0.35374,-0.854 0,-3.08122 0,-3.08122 0,0 -0.5913,2.01611 -1.33966,2.27743 -0.52849,0.18454 -1.74156,-0.66984 -1.74156,-0.66984 0,0 1.34042,-1.17247 1.47363,-1.87552 0.15622,-0.82452 -0.8038,-2.67933 -0.8038,-2.67933 l -1.6076,2.8133 v -1.87553 l 0.8038,-1.74156 -2.67932,-2.411394 -0.13397,32.955694 z"
           style="display:inline;fill:#5781bd;fill-opacity:1;fill-rule:evenodd;stroke:none;stroke-width:0.26458332px;stroke-linecap:butt;stroke-linejoin:miter;stroke-opacity:1" />
        <g
           transform="matrix(0.53299171,0,0,-0.52880424,-20.800135,457.21401)"
           id="g5502"
           clip-path="url(#clipPath5506)"
           style="stroke:#e98300;stroke-width:1.12321687;stroke-miterlimit:4;stroke-dasharray:none;stroke-opacity:1">
          <g
             id="g5908"
             transform="matrix(0.99757111,0,0,1.2176653,595.03286,650.18048)"
             style="stroke:#e98300;stroke-width:2.06215405;stroke-miterlimit:4;stroke-dasharray:none;stroke-opacity:1">
            <g
               id="g5912"
               transform="translate(-80.546139,1.306286)"
               style="stroke:#e98300;stroke-width:2.06215405;stroke-miterlimit:4;stroke-dasharray:none;stroke-opacity:1">
              <g
                 id="g5916"
                 transform="translate(-53.134,-0.704)"
                 style="stroke:#e98300;stroke-width:2.06215405;stroke-miterlimit:4;stroke-dasharray:none;stroke-opacity:1">
                <g
                   id="g5920"
                   transform="translate(-50.408,-4.487)"
                   style="stroke:#e98300;stroke-width:2.06215405;stroke-miterlimit:4;stroke-dasharray:none;stroke-opacity:1">
                  <path
                     d="M 0,0 0.088,-0.968 V -2.023 L 0.176,-2.991 V -3.958 L 0.264,-5.014 V -6.07 L 0.352,-7.125 V -8.181 L 0.44,-9.325 v -1.143 L 0.528,-11.7 v -1.232 l 0.088,-1.231 0.088,-1.232 v -1.319 l 0.088,-1.232 v -1.32 l 0.088,-1.143 v -1.056 l 0.088,-0.571823 v -0.703 l 0.088,-0.264 v -0.088 l 0.088,0.264 0.088,0.44 v 0.615 L 1.32,-21.289 v 0.704 l 0.088,0.791 v 0.793 l 0.088,0.791 v 0.704 l 0.087,0.704 v 0.703 l 0.089,0.616 0.088,0.616 v 0.528 l 0.088,0.527 v 0.528 l 0.088,0.44 v 0.44 l 0.087,0.44 v 0.44 l 0.088,0.352 v 0.352 l 0.089,0.352 0.088,0.351 v 0.264 L 2.375,-9.5 v 0.263 l 0.088,0.264 v 0.264 l 0.088,0.264 v 0.264 l 0.089,0.264 v 0.176 l 0.088,0.263 0.087,0.177 v 0.263 l 0.088,0.176 v 0.176 l 0.088,0.176 v 0.176 l 0.088,0.176 v 0.176 l 0.088,0.176 v 0.088 l 0.088,0.176 v 0.176 l 0.088,0.088 0.088,0.176 v 0.088 l 0.088,0.176 v 0.088 l 0.088,0.176 v 0.088 l 0.088,0.088 v 0.087 l 0.088,0.176 v 0.089 l 0.088,0.088 0.088,0.087 v 0.088 l 0.088,0.088 v 0.088 l 0.088,0.088 v 0.088 l 0.088,0.088 v 0.088 l 0.088,0.088 v 0.088 l 0.088,0.088 0.088,0.088 v 0.088 l 0.176,0.176 v 0.088 l 0.087,0.088 0.088,0.088 v 0.088 l 0.089,0.088 h 0.088 v 0.088 h 0.088 v 0.088 l 0.087,0.087 0.088,0.089 0.089,0.088 v 0.088 h 0.088 l 0.175,0.175 0.088,0.089 0.088,0.088 h 0.089 v 0.087 h 0.087 v 0.088 H 6.07 l 0.088,0.088 h 0.088 v 0.088 h 0.088 l 0.088,0.089 H 6.51 v 0.087 h 0.176 v 0.088 h 0.176 v 0.088 h 0.176 v 0.088 h 0.176 l 0.088,0.088 h 0.176 l 0.088,0.088 H 7.83 l 0.087,0.088 H 8.973 V -0.352 H 9.237 V -0.44 h 0.176 v -0.088 h 0.088 l 0.088,-0.088 h 0.088 v -0.088 h 0.088 v -0.088 h 0.088 l 0.088,-0.087 v -0.089 h 0.088 v -0.088 l 0.088,-0.088 v -0.088 l 0.088,-0.087 v -0.088 l 0.088,-0.089 v -0.087 l 0.176,-0.176 v -0.177 l 0.088,-0.087 v -0.176 l 0.088,-0.176 v -0.176 l 0.087,-0.176 v -0.264 l 0.089,-0.176 v -0.352 l 0.088,-0.264 0.088,-0.352 v -0.351 l 0.088,-0.44 v -0.528 l 0.087,-0.616 v -0.703 l 0.088,-0.88 v -1.056 l 0.089,-1.32 V -11.7 l 0.088,-2.2 v -2.99 l 0.087,-3.959 0.088,-2.463 v 5.014 l 0.088,7.478 v 6.862 l 0.088,6.333 v 6.51 l 0.088,7.566 v 10.38 l 0.088,22.345 V 32.637 l 0.088,-8.181 0.088,-4.31 v -2.815 l 0.088,-1.936 v -1.408 l 0.088,-1.231 v -0.88 l 0.088,-0.792 V 10.469 L 12.492,9.941 V 9.413 L 12.58,9.061 12.668,8.621 V 8.357 L 12.756,8.005 V 7.83 L 12.844,7.565 V 7.39 L 12.932,7.125 V 6.95 L 13.02,6.862 V 6.686 L 13.108,6.51 13.196,6.422 V 6.334 L 13.284,6.158 V 6.07 L 13.372,5.982 V 5.894 L 13.46,5.806 V 5.718 L 13.548,5.63 13.636,5.542 13.724,5.454 13.812,5.366 V 5.278 h 0.087 V 5.19 h 0.088 V 5.102 h 0.089 V 5.015 h 0.088 l 0.087,-0.089 h 0.088 V 4.838 h 0.176 V 4.75 h 0.176 V 4.663 h 0.176 V 4.575 h 0.264 V 4.487 h 0.352 V 4.398 h 0.44 V 4.31 h 0.703 V 4.223 h 1.496 L 18.21,4.135 h 2.816 l 0.086,0.088 h 4.224 V 4.31 h 3.958 v 0.088 h 4.662 l 0.088,0.089 h 5.63 l 0.089,0.088"
                     style="fill:none;stroke:#e98300;stroke-width:2.06215405;stroke-linecap:round;stroke-linejoin:round;stroke-miterlimit:4;stroke-dasharray:none;stroke-opacity:1"
                     id="path5922"
                     inkscape:connector-curvature="0"
                     sodipodi:nodetypes="cccccccccccccccccccccccccccccccccccccccccccccccccccccccccccccccccccccccccccccccccccccccccccccccccccccccccccccccccccccccccccccccccccccccccccccccccccccccccccccccccccccccccccccccccccccccccccccccccccccccccccccccccccccccccccccccccccccccccccccccccccccccccccccccccccccccccc" />
                  <g
                     id="g5924"
                     transform="translate(-47.415,7.125)"
                     style="stroke:#e98300;stroke-width:2.06215405;stroke-miterlimit:4;stroke-dasharray:none;stroke-opacity:1">
                    <path
                       d="m 0,0 h 0.176 l 0.088,-0.088 h 0.792 l 0.088,-0.088 h 0.703 l 0.088,-0.088 h 0.704 l 0.088,-0.087 h 0.792 l 0.087,-0.088 h 0.968 v -0.088 h 2.024 l 0.087,0.088 h 0.088 v 0.088 h 0.088 v 0.175 L 6.95,0.088 v 2.2 l 0.088,-4.223 v 0.792 l 0.087,0.176 0.088,0.088 v 0.087 h 0.088 v 0.088 h 0.264 l 0.088,0.089 h 0.616 v 0.088 h 0.352 v 3.87 l 0.088,-3.782 h 0.264 v 0.088 h 0.176 v 0.087 h 0.176 v 0.088 h 0.088 v 0.088 H 9.5 V 0 H 9.588 V 0.088 L 9.677,0.176 V 0.264 L 9.765,0.352 V 0.528 L 9.853,0.704 9.94,0.968 v 0.264 l 0.088,0.44 v 0.616 l 0.088,1.143 V 5.63 l 0.089,7.742 V -2.287 l 0.088,-11.524 v 6.686 l 0.087,2.111 0.088,1.056 v 0.615 l 0.088,0.44 v 0.264 l 0.088,0.264 v 0.176 l 0.088,0.088 v 0.088 l 0.088,0.176 0.176,0.176 v 0.088 h 0.088 v 0.088 h 0.088 v 0.088 h 0.088 l 0.088,0.088 h 0.176 v 0.088 H 11.7 l 0.088,0.088 h 0.264 v 0.088 h 0.263 l 0.089,0.088 h 0.351 l 0.088,0.088 h 0.352 v 0.087 h 0.265 l 0.087,0.088 h 0.264 l 0.088,0.089 h 0.176 l 0.088,0.088 h 0.176 l 0.088,0.088 h 0.176 v 0.088 h 0.176 l 0.088,0.087 h 0.088 v 0.088 h 0.088 l 0.088,0.088 h 0.088 V 0 h 0.088 l 0.088,0.088 h 0.087 v 0.088 h 0.089 v 0.088 l 0.264,0.264 0.087,0.088 v 0.088 l 0.088,0.088 0.089,0.088 v 0.088 l 0.087,0.176 v 0.088 l 0.088,0.088 v 0.176 l 0.088,0.088 0.088,0.176 v 0.176 l 0.088,0.176 v 0.176 l 0.088,0.263 v 0.265 l 0.088,0.263 v 0.352 l 0.088,0.352 v 0.44 l 0.088,0.528 0.088,0.616 v 0.791 l 0.088,0.968 v 1.319 l 0.088,1.76 v 2.551 l 0.088,4.223 v 9.061 l 0.088,9.501 V 14.076 l 0.088,-11.26 0.088,-9.765 v -10.909 l 0.088,-12.404 v 5.366 l 0.088,6.159 v 3.518 l 0.088,2.288 v 1.583 l 0.088,1.232 v 0.968 l 0.088,0.703 v 0.616 l 0.088,0.528 0.088,0.44 v 0.351 l 0.088,0.264 v 0.352 l 0.088,0.176 v 0.264 l 0.088,0.176 v 0.176 l 0.088,0.176 v 0.176 l 0.087,0.088 0.088,0.176 v 0.088 l 0.088,0.176 v 0.088 l 0.089,0.088 v 0.175 l 0.088,0.265 V -5.19 l 0.087,1.144 v 0.175 l 0.088,0.089 0.088,0.088 0.088,0.088 v 0.088 h 0.088 v 0.087 h 0.088 v 0.088 h 0.088 v 0.088 l 0.088,2.551 h 0.264 v -0.088 h 0.176 l 0.088,-0.087 h 0.088 v -1.848 l 0.088,2.023 v -0.088 l 0.088,-0.087 0.088,-0.088 v -0.088 l 0.088,-0.176 v -0.176 l 0.088,-0.44 v -0.968 l 0.088,-6.333 0.088,13.987 V 1.496 L 20.936,0.792 V 0.44 L 21.025,0.264 V 0.088 L 21.113,0 l 0.088,-0.088 0.088,-0.088 h 0.175 l 0.089,-0.088 h 2.903 v 0.088 h 1.583 v 0.088 h 1.319 V 0 h 1.056 l 0.088,0.088 h 0.88 v 0.088 h 0.88 v 0.088 h 0.703 l 0.088,0.088 h 0.352 l 0.088,0.616 V 0.352 h 0.264 V 0.44 h 0.616 v 0.088 h 0.528 l 0.088,0.088 h 0.44 l 0.088,0.088 h 0.439 v 0.088 h 0.44 l 0.088,0.088 h 0.264 l 0.088,0.088 h 0.352 l 0.088,0.088 h 0.264 v 0.088 l 0.088,-0.088 0.088,0.088 h 0.176 l 0.087,0.088 h 0.265 l 0.087,0.088 h 0.264 v 0.088 h 0.264 v 0.088 h 0.176 l 0.088,0.088 h 0.264 v 0.088 h 0.176 l 0.088,0.088 h 0.176 v 0.088 h 0.176 l 0.088,0.088 h 0.176 v 0.088 h 0.176 l 0.088,0.088 h 0.088 V 2.2 h 0.175 l 0.089,0.088 h 0.088 l 0.088,0.087 h 0.088 v 0.088 h 0.175 l 0.089,0.088 h 0.088 V 2.64 h 0.087 l 0.088,0.088 h 0.088 v 0.088 h 0.088 l 0.089,0.087 h 0.087 v 0.088 h 0.088 l 0.088,0.088 0.088,0.088 h 0.088 l 0.088,0.088 0.088,0.088 0.176,0.176 h 0.088 v 0.088 h 0.088 l 0.088,0.088 0.088,0.088 v 0.088 h 0.088 v 0.088 h 0.088 v 0.088 h 0.088 v 0.088 h 0.088 l 0.087,0.088 v 0.088 h 0.089 v 0.088 l 0.088,0.088 0.088,0.088 v 0.088 h 0.088 v 0.088 l 0.087,0.088 0.088,0.088 0.089,0.088 v 0.088 l 0.088,0.088 v 0.088 h 0.088 v 0.088 l 0.087,0.088 v 0.088 l 0.088,0.087 v 0.088 l 0.089,0.089 0.087,0.088 v 0.088 l 0.088,0.087 v 0.088 l 0.088,0.088 v 0.088 l 0.088,0.088 v 0.176 l 0.088,0.088 v 0.088 l 0.088,0.088 0.088,0.176 v 0.088 l 0.088,0.088 V 7.39 l 0.088,0.088 v 0.176 l 0.088,0.088 v 0.175 l 0.088,0.089 v 0.176 l 0.088,0.176 0.088,0.175 V 8.71 l 0.088,0.087 v 0.176 l 0.088,0.264 v 0.176 l 0.088,0.176 v 0.176 l 0.088,0.264 v 0.176 l 0.088,0.264 0.088,0.176 v 0.264 l 0.088,0.264 v 0.264 l 0.088,0.263 v 0.264 l 0.088,0.352 v 0.352 l 0.088,0.264 v 0.352 l 0.088,0.44 0.087,0.352 v 0.44 l 0.089,0.439 v 0.44 l 0.088,0.528 v 0.528 l 0.087,0.528 v 0.616 l 0.088,0.703 v 0.704 l 0.088,0.792 v 0.792 l 0.089,0.967 0.088,0.968 v 1.144 l 0.087,1.319 v 1.495 l 0.088,1.672 v 2.023 l 0.088,2.288 v 2.815 l 0.088,3.255 v 3.431 l 0.088,1.495 0.088,-2.111 v -3.871 l 0.088,-3.783 v -3.255 l 0.088,-2.815 V 25.16 l 0.088,-2.111 v -1.936 l 0.088,-1.847 v -1.583 l 0.088,-1.584 0.088,-1.407 v -1.32 l 0.088,-1.32 V 10.821 L 46.624,9.677 V 8.533 L 46.712,7.478 V 6.422 L 46.8,5.367 V 4.311 L 46.888,3.343 46.976,2.375 V 1.408 L 47.064,0.44 v -0.967 l 0.088,-0.968 v -0.968 l 0.088,-0.88 V -4.31 l 0.088,-0.968 v -0.968 l 0.087,-0.879"
                       style="fill:none;stroke:#e98300;stroke-width:2.06215405;stroke-linecap:round;stroke-linejoin:round;stroke-miterlimit:4;stroke-dasharray:none;stroke-opacity:1"
                       id="path5926"
                       inkscape:connector-curvature="0" />
                  </g>
                </g>
              </g>
            </g>
          </g>
        </g>
      </g>
    </g>
    <g
       transform="matrix(0.02738399,0,0,0.02738399,90.894411,19.816407)"
       id="g6"
       style="fill:#747678;fill-opacity:1;stroke-width:21.91061211;stroke-miterlimit:4;stroke-dasharray:none">
      <path
         inkscape:connector-curvature="0"
         d="m 951.5,309.3 c -24.7,-58.4 -60,-110.8 -105,-155.7 -45,-45 -97.4,-80.3 -155.7,-105 C 631,23.2 567.5,10.3 502.1,10 c -0.7,0 -1.4,0 -2.1,0 -0.7,0 -1.4,0 -2.1,0 -65.4,0.3 -128.9,13.2 -188.6,38.5 -58.4,24.7 -110.8,60 -155.7,105 -45,45 -80.3,97.4 -105,155.7 C 23,369.7 10,433.9 10,500 c 0,66.1 13,130.3 38.5,190.7 24.7,58.3 60,110.8 105,155.7 45,45 97.4,80.3 155.7,105 59.8,25.3 123.2,38.2 188.6,38.5 0.7,0 1.4,0 2.1,0 0.7,0 1.4,0 2.1,0 65.4,-0.3 128.8,-13.2 188.6,-38.5 58.4,-24.7 110.8,-60 155.7,-105 45,-45 80.3,-97.4 105,-155.7 C 977,630.3 990,566.2 990,500 990,433.9 977,369.7 951.5,309.3 Z m -770.2,-128 c 41.4,-41.4 89.6,-73.9 143.2,-96.6 18.4,-7.8 37.2,-14.3 56.3,-19.5 -23.9,23.9 -45.7,55.2 -64.8,93.4 -12.2,24.5 -23,51 -32.2,79.3 -42.4,-11.3 -81.3,-26 -115,-43.7 4.2,-4.3 8.3,-8.6 12.5,-12.9 z M 84.7,324.6 c 15.1,-35.8 34.6,-69.1 58.2,-99.6 37.8,20.7 81.7,37.8 129.9,50.7 -16.6,62.8 -26,132.4 -27.5,204.7 H 49.8 c 2.3,-54 14,-106.3 34.9,-155.8 z m 58.2,450.5 C 119.3,744.6 99.8,711.2 84.7,675.5 63.7,626 52,573.7 49.7,519.8 h 195.6 c 1.4,72.3 10.9,141.9 27.5,204.7 -48.1,12.8 -92.1,29.8 -129.9,50.6 z m 181.7,140.2 c -53.7,-22.7 -101.9,-55.2 -143.2,-96.6 -4.2,-4.2 -8.4,-8.5 -12.4,-12.9 33.7,-17.7 72.6,-32.4 115,-43.7 9.2,28.3 20,54.8 32.2,79.3 19.1,38.2 40.9,69.5 64.8,93.4 -19.2,-5.2 -38,-11.8 -56.4,-19.5 z m 155.7,33.4 c -20.2,-4 -40,-14.2 -59.2,-30.4 -26,-22 -49.5,-53.8 -69.9,-94.6 -10.9,-21.9 -20.6,-45.6 -29,-70.8 49.5,-10.3 102.9,-16.4 158,-17.5 v 213.3 z m 0,-252.6 c -59,1.2 -116.2,7.7 -169.3,19.1 C 295.1,655.5 286.1,589 284.6,519.7 h 195.6 v 176.4 z m 0,-215.8 H 284.7 c 1.4,-69.3 10.5,-135.8 26.4,-195.5 53.1,11.4 110.4,17.9 169.3,19.1 v 176.4 z m 0,-215.7 c -55.1,-1.2 -108.5,-7.2 -158,-17.5 8.4,-25.2 18,-48.9 29,-70.8 20.4,-40.8 43.9,-72.6 69.9,-94.6 19.2,-16.2 39,-26.4 59.2,-30.4 V 264.6 Z M 675.4,84.7 c 53.7,22.7 101.9,55.2 143.2,96.6 4.2,4.2 8.3,8.5 12.4,12.9 -33.3,17.4 -72.5,32.3 -115,43.7 -9.2,-28.3 -19.9,-54.8 -32.2,-79.3 C 664.7,120.4 642.9,89.1 619,65.2 638.2,70.4 657,77 675.4,84.7 Z M 519.7,51.3 c 20.2,4 40,14.2 59.1,30.4 26,22 49.5,53.8 69.9,94.6 10.9,21.8 20.6,45.5 29,70.8 -49.9,10.4 -103.6,16.4 -158,17.6 z m 0,252.6 c 58.9,-1.2 115.6,-7.6 169.3,-19.1 15.9,59.7 24.9,126.2 26.4,195.5 H 519.7 Z m 0,215.8 H 715.3 C 713.9,589 704.8,655.5 688.9,715.3 635.8,703.9 578.5,697.4 519.7,696.2 Z m 59.1,398.7 c -19.1,16.2 -39,26.4 -59.1,30.4 V 735.5 c 55.1,1.2 108.5,7.2 158,17.5 -8.4,25.2 -18,48.9 -29,70.8 -20.4,40.8 -43.9,72.6 -69.9,94.6 z m 239.9,-99.7 c -41.4,41.4 -89.6,73.9 -143.2,96.6 -18.4,7.8 -37.2,14.3 -56.3,19.5 23.9,-23.9 45.7,-55.2 64.8,-93.4 12.2,-24.4 23,-51 32.2,-79.3 42.4,11.3 81.3,26 115,43.7 -4.2,4.3 -8.3,8.6 -12.5,12.9 z m 96.6,-143.3 c -15.1,35.8 -34.6,69.1 -58.2,99.6 -37.8,-20.7 -81.8,-37.8 -129.9,-50.7 16.6,-62.8 26.1,-132.4 27.5,-204.7 h 195.6 c -2.4,54 -14.1,106.3 -35,155.8 z M 754.6,480.3 C 753.2,408 743.7,338.4 727.1,275.6 776,262.5 819.5,245.5 857,224.9 c 23.6,30.5 43.1,63.9 58.2,99.6 21,49.5 32.7,101.8 35,155.7 H 754.6 Z"
         id="path4"
         style="fill:#747678;fill-opacity:1;stroke-width:21.91061211;stroke-miterlimit:4;stroke-dasharray:none" />
    </g>
    <g
       transform="matrix(0,-0.02894962,0.02894962,0,129.70846,47.038233)"
       id="g30"
       style="fill:#747678;fill-opacity:1">
      <g
         transform="matrix(0.1,0,0,-0.1,0,511)"
         id="g28"
         style="fill:#747678;fill-opacity:1">
        <path
           inkscape:connector-curvature="0"
           d="m 4930,6082.6329 c -23,-9.6 -59.5,-42.2 -82.5,-71 l -40.3,-51.8 V 2166.1 -530.9 l -61.4,-28.8 c -101.6,-44 -237.8,-184 -283.8,-293.3 -59.5,-136.2 -61.4,-331.9 -1.9,-464.2 53.7,-120.8 155.4,-228.3 280.1,-293.5 82.5,-44.1 118.9,-51.8 259,-51.8 140,0 176.5,7.7 259,51.8 124.7,65.2 226.3,172.6 280.1,293.5 59.5,132.3 57.5,328 -1.9,464.2 -46,109.3 -182.2,249.4 -282,293.5 l -63.3,28.8 v 2698.9 3797.5329 l -51.8,57.5 c -57.7,61.3 -144.1,86.2 -209.3,59.4 z"
           id="path4-3"
           style="fill:#747678;fill-opacity:1"
           sodipodi:nodetypes="cccccccccsccccccccc" />
        <path
           inkscape:connector-curvature="0"
           d="M 6890.4,2544 C 6857.8,2509.5 6506.8,1922.5 6113.5,1239.6 5353.9,-80 5350.1,-85.8 5434.5,-179.8 c 80.6,-92.1 191.8,-101.7 278.1,-28.8 46,40.3 1423.3,2409.2 1480.8,2549.3 36.4,84.4 19.2,159.2 -49.9,216.7 -82.4,71.1 -174.5,65.3 -253.1,-13.4 z"
           id="path6"
           style="fill:#747678;fill-opacity:1" />
        <path
           inkscape:connector-curvature="0"
           d="m 3527.8,1492.9 c -59.5,-24.9 -107.4,-107.4 -105.5,-182.2 1.9,-46 117,-262.8 406.7,-763.4 222.5,-385.6 425.8,-723.2 450.8,-750 36.4,-40.3 65.2,-49.9 132.3,-49.9 71,0 92.1,9.6 134.3,59.5 95.9,113.2 88.2,128.5 -354.9,897.7 -222.5,385.6 -422,721.2 -446.9,746.2 -48,47.8 -153.5,68.9 -216.8,42.1 z"
           id="path8"
           style="fill:#747678;fill-opacity:1" />
        <path
           inkscape:connector-curvature="0"
           d="m 1421.7,1111.2 c -122.8,-53.7 -151.5,-214.8 -55.6,-308.8 55.6,-51.8 2407.3,-1417.6 2533.9,-1471.3 84.4,-34.5 159.2,-19.2 218.7,44.1 53.7,57.5 61.4,168.8 13.4,239.8 -40.3,61.4 -2526.2,1494.3 -2610.6,1503.9 -32.7,5.7 -78.7,1.9 -99.8,-7.7 z"
           id="path10"
           style="fill:#747678;fill-opacity:1" />
        <path
           inkscape:connector-curvature="0"
           d="m 7051.5,326.6 c -163,-94 -491,-283.9 -728.9,-420.1 -374,-216.8 -435.4,-259 -466.1,-318.4 -69,-136.2 17.3,-274.3 165,-270.5 67.1,3.8 195.7,71 788.4,414.3 425.8,245.5 723.1,429.7 748.1,462.3 88.2,117 17.3,274.3 -134.3,293.5 -67.2,9.7 -105.6,-7.6 -372.2,-161.1 z"
           id="path12"
           style="fill:#747678;fill-opacity:1" />
        <path
           inkscape:connector-curvature="0"
           d="M 230.5,-899.1 C 153.8,-914.4 98.1,-995 100,-1089 c 1.9,-99.7 42.2,-153.5 140,-182.2 46,-13.4 656,-17.2 1853,-13.4 1691.8,5.8 1785.8,7.7 1835.7,40.3 120.8,82.5 103.6,274.3 -30.7,329.9 -57.5,24.9 -324.2,28.8 -1847.2,26.8 -978.2,-1.9 -1799.2,-7.6 -1820.3,-11.5 z"
           id="path14"
           style="fill:#747678;fill-opacity:1" />
        <path
           inkscape:connector-curvature="0"
           d="m 6096.3,-914.4 c -157.3,-69.1 -136.2,-306.9 32.6,-354.9 46,-15.3 640.7,-19.2 1856.8,-15.3 1774.3,5.8 873.7559,5.8 925.5559,46 99.7,74.8 99.7,228.3 0,303.1 -51.8,40.3 848.7441,40.3 -944.7559,44.1 -1534.6,3.8 -1816.5,0 -1870.2,-23 z"
           id="path16"
           style="fill:#747678;fill-opacity:1"
           sodipodi:nodetypes="ccccccc" />
        <path
           inkscape:connector-curvature="0"
           d="m 3919.1,-1493.7 c -69.1,-19.2 -1404.1,-797.9 -1459.7,-849.7 -44.1,-42.2 -53.7,-69.1 -53.7,-136.2 1.9,-113.1 69.1,-180.3 182.2,-180.3 69.1,0 172.6,53.7 771.1,399 379.8,220.6 715.5,423.9 748.1,456.5 140,138.1 1.9,364.4 -188,310.7 z"
           id="path18"
           style="fill:#747678;fill-opacity:1" />
        <path
           inkscape:connector-curvature="0"
           d="m 5948.6,-1497.5 c -111.3,-48 -149.6,-193.7 -76.7,-291.6 21.1,-26.8 573.5,-358.7 1294.8,-774.9 1102.9,-638.8 1266,-727 1337,-728.9 113.2,0 184.1,69 184.1,182.2 0,63.3 -11.5,92.1 -55.6,134.3 -80.6,76.7 -2507.1,1473.2 -2581.9,1484.7 -34.6,5.7 -80.6,3.7 -101.7,-5.8 z"
           id="path20"
           style="fill:#747678;fill-opacity:1" />
        <path
           inkscape:connector-curvature="0"
           d="m 4375.7,-1917.6 c -23,-1.9 -61.4,-25 -90.2,-47.9 -46,-40.3 -1402.2,-2370.9 -1475.1,-2535.8 -59.5,-138.1 3.8,-253.2 151.5,-272.4 63.3,-7.7 84.4,-1.9 134.3,44.1 34.5,32.6 372.1,596.6 780.7,1304.4 769.2,1333.1 765.3,1325.5 681,1432.9 -42.2,51.7 -120.9,86.2 -182.2,74.7 z"
           id="path22"
           style="fill:#747678;fill-opacity:1" />
        <path
           inkscape:connector-curvature="0"
           d="m 5451.8,-1980.9 c -95.9,-113.2 -88.3,-128.5 354.9,-897.7 222.5,-385.5 422,-721.2 445,-744.3 78.7,-86.3 230.2,-74.8 293.5,23 67.1,101.7 49.9,143.9 -377.9,886.2 -222.5,387.4 -425.8,725.1 -452.7,750 -32.6,30.7 -69,42.2 -130.4,42.2 -69.1,0 -90.2,-9.6 -132.4,-59.4 z"
           id="path24"
           style="fill:#747678;fill-opacity:1" />
        <path
           inkscape:connector-curvature="0"
           d="m 4903.2,-2097.9 c -95.9,-51.8 -95.9,-53.7 -92.1,-1066.5 l 5.7,-947.6 53.7,-46 c 72.9,-63.3 184.2,-63.3 257,0 l 53.7,46 v 970.6 c 0,959.1 0,970.6 -40.3,1008.9 -49.8,49.9 -172.5,67.2 -237.7,34.6 z"
           id="path26"
           style="fill:#747678;fill-opacity:1" />
      </g>
    </g>
    <g
       transform="matrix(0.02735126,0,0,0.02735126,103.29235,100.71418)"
       id="g12"
       style="fill:#747678;fill-opacity:1;stroke-width:0;stroke-miterlimit:4;stroke-dasharray:none">
      <path
         inkscape:connector-curvature="0"
         d="M 872.6,9.2 H 127.4 C 62.7,9.2 10,61.8 10,126.6 v 746.9 c 0,64.7 52.7,117.4 117.4,117.4 h 745.2 c 64.7,0 117.4,-52.7 117.4,-117.4 v -747 C 990,61.8 937.3,9.2 872.6,9.2 Z m 77.5,864.2 c 0,42.7 -34.8,77.5 -77.5,77.5 H 127.4 c -42.7,0 -77.5,-34.8 -77.5,-77.5 V 126.5 C 49.9,83.8 84.7,49 127.4,49 h 745.2 c 42.7,0 77.5,34.8 77.5,77.5 z"
         id="path4-5"
         style="fill:#747678;fill-opacity:1;stroke-width:0;stroke-miterlimit:4;stroke-dasharray:none" />
      <path
         inkscape:connector-curvature="0"
         d="m 283.9,204.5 v -30.9 c 0,-11 -8.9,-19.9 -19.9,-19.9 -11,0 -19.9,8.9 -19.9,19.9 v 30.9 c -47.9,9.4 -84.3,51.6 -84.3,102.2 0,50.6 36.3,92.9 84.3,102.2 V 830 c 0,11 8.9,19.9 19.9,19.9 11,0 19.9,-8.9 19.9,-19.9 V 408.9 c 47.9,-9.3 84.3,-51.6 84.3,-102.2 -0.1,-50.6 -36.4,-92.8 -84.3,-102.2 z m -20,166.6 c -35.5,0 -64.3,-28.9 -64.3,-64.3 0,-35.5 28.9,-64.3 64.3,-64.3 35.4,0 64.3,28.9 64.3,64.3 0,35.4 -28.8,64.3 -64.3,64.3 z"
         id="path6-6"
         style="fill:#747678;fill-opacity:1;stroke-width:0;stroke-miterlimit:4;stroke-dasharray:none" />
      <path
         inkscape:connector-curvature="0"
         d="M 523.6,561.9 V 173.7 c 0,-11 -8.9,-19.9 -19.9,-19.9 -11,0 -19.9,8.9 -19.9,19.9 v 388.2 c -47.9,9.3 -84.3,51.6 -84.3,102.2 0,50.6 36.3,92.9 84.3,102.2 v 63.8 c 0,11 8.9,19.9 19.9,19.9 11,0 19.9,-8.9 19.9,-19.9 v -63.8 c 47.9,-9.4 84.3,-51.6 84.3,-102.2 0,-50.6 -36.3,-92.8 -84.3,-102.2 z m -19.9,166.5 c -35.5,0 -64.3,-28.9 -64.3,-64.3 0,-35.4 28.9,-64.3 64.3,-64.3 35.5,0 64.3,28.9 64.3,64.3 0,35.4 -28.9,64.3 -64.3,64.3 z"
         id="path8-2"
         style="fill:#747678;fill-opacity:1;stroke-width:0;stroke-miterlimit:4;stroke-dasharray:none" />
      <path
         inkscape:connector-curvature="0"
         d="m 763.4,306.7 v -133 c 0,-11 -8.9,-19.9 -19.9,-19.9 -11,0 -19.9,8.9 -19.9,19.9 v 133 c -47.9,9.3 -84.3,51.6 -84.3,102.2 0,50.6 36.3,92.9 84.3,102.2 v 319 c 0,11 8.9,19.9 19.9,19.9 11,0 19.9,-8.9 19.9,-19.9 v -319 c 47.9,-9.3 84.3,-51.6 84.3,-102.2 0,-50.7 -36.4,-92.9 -84.3,-102.2 z m 0,163 c -6.3,2.1 -12.9,3.5 -19.9,3.5 v 0 c -7,0 -13.6,-1.4 -19.9,-3.5 -25.7,-8.5 -44.4,-32.4 -44.4,-60.8 0,-28.5 18.7,-52.4 44.4,-60.8 6.3,-2.1 12.9,-3.5 19.9,-3.5 v 0 c 7,0 13.6,1.4 19.9,3.5 25.7,8.5 44.4,32.4 44.4,60.8 0,28.4 -18.8,52.3 -44.4,60.8 z"
         id="path10-9"
         style="fill:#747678;fill-opacity:1;stroke-width:0;stroke-miterlimit:4;stroke-dasharray:none" />
    </g>
    <circle
       style="opacity:1;fill:#747678;fill-opacity:1;stroke:#ffffff;stroke-width:0;stroke-linecap:butt;stroke-linejoin:miter;stroke-miterlimit:4;stroke-dasharray:none;stroke-dashoffset:0;stroke-opacity:1;paint-order:markers fill stroke"
       id="path7185"
       cx="110.53805"
       cy="109.09137"
       r="1.9377041" />
    <circle
       style="opacity:1;fill:#747678;fill-opacity:1;stroke:#ffffff;stroke-width:0;stroke-linecap:butt;stroke-linejoin:miter;stroke-miterlimit:4;stroke-dasharray:none;stroke-dashoffset:0;stroke-opacity:1;paint-order:markers fill stroke"
       id="path7185-1"
       cx="117.01933"
       cy="118.99705"
       r="1.9377041" />
    <circle
       style="opacity:1;fill:#747678;fill-opacity:1;stroke:#ffffff;stroke-width:0;stroke-linecap:butt;stroke-linejoin:miter;stroke-miterlimit:4;stroke-dasharray:none;stroke-dashoffset:0;stroke-opacity:1;paint-order:markers fill stroke"
       id="path7185-2"
       cx="123.63425"
       cy="111.96452"
       r="1.9377041" />
  </g>
</svg>
