<?xml version="1.0" encoding="UTF-8" standalone="no"?>
<!-- Created with Inkscape (http://www.inkscape.org/) -->

<svg
   width="48"
   height="48"
   viewBox="0 0 12.7 12.7"
   version="1.1"
   id="svg5"
   xml:space="preserve"
   inkscape:version="1.2.2 (b0a8486541, 2022-12-01)"
   sodipodi:docname="nuke_icon.svg"
   xmlns:inkscape="http://www.inkscape.org/namespaces/inkscape"
   xmlns:sodipodi="http://sodipodi.sourceforge.net/DTD/sodipodi-0.dtd"
   xmlns="http://www.w3.org/2000/svg"
   xmlns:svg="http://www.w3.org/2000/svg"><sodipodi:namedview
     id="namedview7"
     pagecolor="#ffffff"
     bordercolor="#000000"
     borderopacity="0.25"
     inkscape:showpageshadow="2"
     inkscape:pageopacity="0.0"
     inkscape:pagecheckerboard="0"
     inkscape:deskcolor="#d1d1d1"
     inkscape:document-units="mm"
     showgrid="false"
     inkscape:zoom="6.1575757"
     inkscape:cx="-32.96752"
     inkscape:cy="13.885335"
     inkscape:window-width="2560"
     inkscape:window-height="1418"
     inkscape:window-x="0"
     inkscape:window-y="0"
     inkscape:window-maximized="1"
     inkscape:current-layer="layer1" /><defs
     id="defs2" /><g
     inkscape:label="Layer 1"
     inkscape:groupmode="layer"
     id="layer1"><path
       d="M 6.4876274,1.5415714 C 6.440082,1.5513604 6.3646703,1.5687199 6.3209199,1.5792797 6.2009814,1.6079228 6.119513,1.6200254 5.9822249,1.6305765 5.7823273,1.6456694 5.7740286,1.6448975 5.7091577,1.6117223 5.5794112,1.545337 5.4353335,1.5581634 5.2286466,1.6562293 L 5.157739,1.6894055 H 5.0204508 c -0.076188,0 -0.1727447,0.00385 -0.2157427,0.00752 -0.1372834,0.01355 -0.1848094,0.025654 -0.3688666,0.092028 -0.022615,0.00829 -0.1252187,0.036986 -0.2278075,0.06261 -0.1018369,0.026425 -0.2006546,0.05431 -0.2187565,0.062609 -0.01736,0.00752 -0.059591,0.033947 -0.092786,0.058087 C 3.767502,2.066552 3.7395921,2.0839013 3.6822629,2.1080404 3.6075843,2.1389501 3.498958,2.2030875 3.3910891,2.2807851 3.2304187,2.3954435 3.104443,2.5101019 2.9709257,2.6647399 2.9196289,2.7235787 2.827605,2.8239008 2.765748,2.8887765 2.6314784,3.0290785 2.568869,3.107533 2.5243617,3.1920152 2.4866534,3.2621705 2.4361034,3.4070009 2.4180015,3.4922399 2.390853,3.6234958 2.3961099,3.7751151 2.4323225,3.887512 l 0.017359,0.054311 -0.030186,0.07166 c -0.064119,0.1538858 -0.076189,0.1953745 -0.076945,0.2594932 0,0.076189 0.014321,0.1078691 0.086748,0.1893372 0.058087,0.065628 0.075436,0.095799 0.075436,0.1289896 0,0.012055 -0.013598,0.061104 -0.03091,0.1086257 -0.046774,0.131251 -0.061852,0.2119671 -0.06261,0.3311534 -4.821e-4,0.089009 0.00241,0.112392 0.021121,0.1848094 0.027149,0.1025891 0.036984,0.1259757 0.070155,0.1719875 0.059591,0.080716 0.1531287,0.1267279 0.2685393,0.1304988 0.040746,4.822e-4 0.079959,0.00434 0.087506,0.0068 0.021891,0.0068 0.034719,0.03091 0.067138,0.1289944 0.039203,0.1184292 0.062604,0.1636888 0.1086213,0.2081963 0.064119,0.062609 0.1327604,0.089009 0.3560448,0.1350266 l 0.081468,0.016588 0.058081,0.057329 c 0.064875,0.065628 0.1199385,0.097308 0.207444,0.1214478 0.07317,0.020349 0.1802864,0.021892 0.2655255,0.00434 0.064119,-0.01355 0.089767,-0.011332 0.1606751,0.014321 0.018082,0.00602 0.055062,0.011332 0.082973,0.011332 0.052806,0 0.062609,0.00434 0.146344,0.061857 0.141059,0.096552 0.3522739,0.093538 0.5016269,-0.00752 0.042241,-0.029414 0.043736,-0.029414 0.065628,-0.018082 0.037708,0.019626 0.1229572,0.021121 0.1825479,0.00289 0.049036,-0.015093 0.1297465,-0.060348 0.165203,-0.093538 0.015817,-0.014321 0.01736,-0.014321 0.041469,-0.00145 0.03091,0.015865 0.1025892,0.015865 0.1674598,4.822e-4 0.042241,-0.010556 0.043736,-0.010556 0.052049,0.0053 0.018854,0.034719 0.024882,0.8757783 0.0068,0.9776149 -0.0053,0.03091 -0.012056,0.101837 -0.015093,0.1561473 -0.0068,0.1169199 -0.01355,0.1304988 -0.064119,0.1304988 -0.01736,0 -0.070908,0.012055 -0.1199385,0.027919 -0.1033458,0.032452 -0.085244,0.034719 -0.2466712,-0.036984 -0.2089486,-0.09278 -0.3070095,-0.1154155 -0.4073369,-0.09278 -0.03091,0.00752 -0.089767,0.015817 -0.1297465,0.018854 -0.1078691,0.00907 -0.1433255,0.022615 -0.1991453,0.079964 -0.044507,0.046003 -0.04903,0.048274 -0.08373,0.048274 -0.057329,4.822e-4 -0.095799,0.012055 -0.1546378,0.048278 -0.042242,0.025653 -0.065628,0.033947 -0.100327,0.037708 -0.1154106,0.012826 -0.2119671,0.098062 -0.2413863,0.2142287 -0.015093,0.058839 -0.00602,0.1139061 0.027149,0.159918 0.028643,0.039203 0.05582,0.05582 0.131251,0.079207 0.033175,0.010555 0.079206,0.027149 0.1018369,0.036936 0.07845,0.034719 0.1372882,0.032452 0.239877,-0.00829 0.043012,-0.017359 0.048278,-0.018082 0.064119,-0.00752 0.049036,0.031681 0.1614273,0.037708 0.2572267,0.013598 l 0.058839,-0.015865 0.03091,0.026425 c 0.068646,0.058839 0.197636,0.080711 0.2979633,0.049782 0.027919,-0.00829 0.064119,-0.024158 0.079202,-0.033947 l 0.027919,-0.018854 0.035442,0.016587 c 0.030186,0.01355 0.05054,0.016588 0.126728,0.016588 0.084487,4.822e-4 0.093538,0.00241 0.1342696,0.022615 0.049036,0.024882 0.055068,0.036986 0.043736,0.086748 -0.00385,0.018854 -0.063362,0.376413 -0.1327604,0.7958193 -0.069399,0.418654 -0.1282372,0.7641385 -0.1304988,0.7671574 -0.00289,0.00285 -0.020349,0.00832 -0.03848,0.012822 l -0.033947,0.00756 -0.052801,-0.057332 C 4.9547564,9.596577 4.8227484,9.526426 4.693754,9.526426 c -0.032452,0 -0.070151,0.00383 -0.082977,0.00832 C 4.589656,9.542306 4.584352,9.540766 4.564004,9.523413 4.551178,9.512901 4.526296,9.500025 4.508942,9.495492 4.470462,9.48498 4.3807047,9.491112 4.344496,9.506004 L 4.318843,9.516516 4.29319,9.472783 C 4.236617,9.3754746 4.1468502,9.3000383 4.0352104,9.2555314 3.7968426,9.1604887 3.5562086,9.2487426 3.4475824,9.4727838 c -0.01355,0.027144 -0.029414,0.064877 -0.034719,0.083732 l -0.00979,0.033944 -0.053558,0.00909 C 3.2439129,9.6161388 3.1511272,9.6840258 3.1073768,9.778322 3.0862558,9.823599 3.0817238,9.828865 3.0530668,9.835654 2.9278433,9.868109 2.8403426,9.922408 2.7762239,10.0084 c -0.047497,0.06412 -0.068646,0.117676 -0.07317,0.193107 -0.00752,0.110888 0.030186,0.202164 0.1063602,0.261003 0.021121,0.01659 0.043012,0.03318 0.047545,0.03693 0.018082,0.01509 0.011332,0.07468 -0.014321,0.127481 -0.064119,0.130503 -0.01355,0.276091 0.11692,0.340204 0.052807,0.02566 0.085244,0.02941 0.197636,0.02034 l 0.075436,-0.006 0.027149,0.02488 c 0.033175,0.03168 0.078454,0.05431 0.1425683,0.0709 0.061858,0.01587 0.2097056,0.01051 0.296454,-0.01133 l 0.058839,-0.01432 0.043012,0.02112 c 0.063362,0.03168 0.1199385,0.04074 0.2149857,0.03472 0.064119,-0.0038 0.089762,-0.0024 0.1237093,0.0076 0.05582,0.01659 0.1365361,0.01051 0.215738,-0.01432 0.048278,-0.01581 0.063366,-0.01736 0.086748,-0.01133 0.048278,0.0136 0.1636889,0.0038 0.2315831,-0.01962 0.059591,-0.02034 0.060343,-0.02034 0.105608,-0.0076 0.056572,0.01581 0.1538809,0.01432 0.2564698,-0.0028 0.074679,-0.01282 0.076188,-0.01282 0.132008,0.0028 0.1222049,0.03544 0.2187566,0.03998 0.4903193,0.02112 l 0.1848093,-0.0136 0.1433255,0.02792 c 0.2029161,0.03848 0.2353491,0.04301 0.3590633,0.04828 0.1644411,0.0068 0.3077665,-0.01509 0.3997951,-0.06185 0.046773,-0.02416 0.063361,-0.02339 0.1033414,0.0038 0.040746,0.02714 0.082977,0.03394 0.1667074,0.02565 0.035442,-0.0038 0.092034,-0.006 0.1252235,-0.0044 0.2730671,0.0076 0.337938,0.006 0.3960242,-0.01206 0.072412,-0.02261 0.1139014,-0.04678 0.1667075,-0.09731 0.03848,-0.03699 0.043012,-0.0392 0.052801,-0.02792 0.015865,0.01962 0.068646,0.03998 0.1320082,0.0528 0.039203,0.0068 0.064871,0.01659 0.080716,0.03019 0.061852,0.05204 0.1395498,0.07468 0.2542083,0.07392 0.089767,0 0.146339,-0.01206 0.206687,-0.04224 0.027919,-0.01432 0.03091,-0.01432 0.086748,-0.0024 0.031681,0.0076 0.082977,0.02261 0.1146584,0.03472 0.104098,0.03998 0.1863236,0.05431 0.3122944,0.05507 0.1040981,0 0.1176771,-0.0014 0.1689739,-0.02034 0.061852,-0.02189 0.1297417,-0.06487 0.1508622,-0.09504 0.00752,-0.01051 0.018082,-0.03245 0.024158,-0.04828 0.012056,-0.03472 0.03091,-0.05204 0.070908,-0.06488 0.035442,-0.01206 0.1161677,-0.06261 0.1569043,-0.09881 0.061846,-0.05418 0.1237028,-0.150726 0.153875,-0.241251 0.01963,-0.05883 0.01885,-0.217247 -4.82e-4,-0.290417 -0.028642,-0.105596 -0.082976,-0.189326 -0.1478517,-0.229306 -0.022615,-0.01354 -0.024158,-0.01736 -0.027149,-0.0694 C 9.4888032,9.9407005 9.4652199,9.8592331 9.4275116,9.7868156 9.3844993,9.7053505 9.2826818,9.6012492 9.2064936,9.5620221 9.1491647,9.5326115 9.0797656,9.5114787 9.0405383,9.5114787 c -0.020349,0 -0.027148,-0.00526 -0.043012,-0.032455 C 8.9379349,9.3771926 8.7885775,9.3145772 8.6663775,9.3402256 l -0.049036,0.00975 -0.025653,-0.021888 C 8.473255,9.2277511 8.2876933,9.2217178 8.1058978,9.3129939 c -0.075436,0.038477 -0.1403069,0.086754 -0.1689739,0.1267276 -0.034671,0.048277 -0.055062,0.059588 -0.1116398,0.061854 -0.061852,0.00241 -0.1184292,0.027144 -0.1644459,0.073165 -0.024882,0.025655 -0.039975,0.034721 -0.056572,0.034721 -0.012055,0 -0.048278,0.013556 -0.07996,0.030911 L 7.4654675,9.6705613 7.423998,9.6494395 C 7.383252,9.6290955 7.377995,9.6283175 7.2670986,9.6283175 c -0.098066,0 -0.1154154,-0.00142 -0.1154154,-0.011333 0,-0.00602 -0.00289,-0.046777 -0.00757,-0.090521 C 7.1011014,9.061842 7.0611364,8.4304638 7.0611364,8.2132165 v -0.057329 l 0.032452,-0.00979 c 0.041469,-0.012104 0.085996,-0.03848 0.1289894,-0.076945 0.031681,-0.027149 0.03848,-0.030186 0.063367,-0.026425 0.015093,0.00289 0.065628,0.023387 0.1108875,0.046003 0.1448299,0.072413 0.2134764,0.074679 0.384707,0.012055 l 0.060348,-0.021891 0.1131491,0.014321 c 0.1893421,0.024882 0.2858938,0.01736 0.3854689,-0.029414 C 8.4400754,8.0170289 8.490615,7.9446161 8.4898628,7.8480645 8.4893807,7.7545263 8.4355472,7.6723012 8.3601163,7.6496714 8.3352344,7.642149 8.3292066,7.6361213 8.321636,7.6104685 8.3095805,7.5697217 8.2522417,7.5139115 8.1941559,7.4867542 8.1624753,7.4716613 8.1458779,7.4581111 8.1398458,7.4445128 8.118725,7.3932204 8.0410276,7.3456947 7.9550315,7.3306066 7.9256176,7.3262706 7.8750774,7.3087151 7.8418824,7.2928983 7.7649416,7.2566847 7.7113837,7.2454011 7.6367047,7.249886 7.5612737,7.254226 7.5001688,7.281567 7.4315271,7.342672 7.3576011,7.407543 7.3628811,7.406033 7.2550116,7.407543 c -0.087501,0.00145 -0.098818,0 -0.1176769,-0.014321 C 7.1252787,7.384932 7.1041597,7.372873 7.0890607,7.366845 7.0536187,7.351752 7.0430577,7.330631 7.0498577,7.286886 c 0.00289,-0.018854 0.00757,-0.2760858 0.00979,-0.5717828 0.00289,-0.2949446 0.00757,-0.5385926 0.00979,-0.5408589 0.00241,-0.00241 0.026425,0.00752 0.053558,0.021892 0.1078691,0.057329 0.2232797,0.069399 0.3205884,0.033175 0.051297,-0.018854 0.053559,-0.018854 0.1108875,-0.00289 0.037708,0.010555 0.051297,0.011332 0.090519,0.00385 0.024882,-0.00526 0.058087,-0.015817 0.073926,-0.023387 l 0.028643,-0.014321 0.1259757,0.033947 c 0.1697261,0.046003 0.2451572,0.058081 0.3530262,0.058839 0.099575,4.822e-4 0.1742539,-0.015093 0.2474235,-0.052049 0.047545,-0.024158 0.1078691,-0.086748 0.1372882,-0.1403068 0.011332,-0.021892 0.021892,-0.04147 0.023387,-0.042242 4.822e-4,-0.00145 0.016588,0.0068 0.034719,0.018854 0.126728,0.086744 0.2926832,0.1093779 0.4020615,0.05582 0.076941,-0.037708 0.1335174,-0.1093779 0.1621795,-0.2044254 l 0.012056,-0.041469 0.052053,-0.00602 c 0.1372883,-0.015093 0.2896598,-0.07166 0.3862163,-0.1433254 0.07996,-0.059591 0.135779,-0.1448298 0.161428,-0.2466664 0.0136,-0.052801 0.01206,-0.196879 -0.0024,-0.2685393 l -0.01056,-0.052806 0.06261,-0.033175 C 10.097181,5.0233845 10.19977,4.8657275 10.177139,4.6952491 c -0.0068,-0.051292 -0.01581,-0.076188 -0.0611,-0.164441 -0.03771,-0.075436 -0.05054,-0.1078735 -0.046,-0.1169248 0.0028,-0.0068 0.0083,-0.03091 0.01133,-0.053559 0.0076,-0.05582 0.01355,-0.064871 0.0611,-0.086748 0.05431,-0.024882 0.125971,-0.093533 0.15916,-0.1523715 0.03168,-0.056577 0.05582,-0.1478532 0.05582,-0.2104626 0,-0.025653 -0.0068,-0.072413 -0.01432,-0.1033414 C 10.292586,3.609015 10.147751,3.4030802 9.9199435,3.2054442 9.8641235,3.157166 9.8535635,3.1428349 9.8324435,3.0953089 9.7245745,2.847138 9.5231672,2.6057468 9.2614126,2.4111342 c -0.037708,-0.027919 -0.070908,-0.050544 -0.07317,-0.050544 -0.00289,0 -0.026425,-0.01355 -0.051297,-0.030186 -0.036213,-0.022616 -0.05431,-0.042242 -0.081468,-0.084488 C 8.9732572,2.1176841 8.8503001,2.0196183 8.7009422,1.9622892 8.5991056,1.9238089 8.5674249,1.9192769 8.3584764,1.9192769 c -0.1863236,0 -0.193113,-4.822e-4 -0.2225274,-0.017359 C 8.0703214,1.8649317 7.9315236,1.8008381 7.8772082,1.7827359 7.7821655,1.7502834 7.721818,1.742761 7.5754788,1.742761 7.3107056,1.742761 7.0632869,1.6944874 6.8762111,1.6062299 6.6989435,1.5225004 6.6325584,1.5111828 6.4877286,1.5413545 Z"
       id="path178"
       style="fill:#cc0000;stroke:#cc0000;stroke-width:0.0352778" /></g></svg>
