<?xml version="1.0" encoding="UTF-8" standalone="no"?>
<!-- Created with Inkscape (http://www.inkscape.org/) -->

<svg
   xmlns:dc="http://purl.org/dc/elements/1.1/"
   xmlns:cc="http://creativecommons.org/ns#"
   xmlns:rdf="http://www.w3.org/1999/02/22-rdf-syntax-ns#"
   xmlns:svg="http://www.w3.org/2000/svg"
   xmlns="http://www.w3.org/2000/svg"
   xmlns:sodipodi="http://sodipodi.sourceforge.net/DTD/sodipodi-0.dtd"
   xmlns:inkscape="http://www.inkscape.org/namespaces/inkscape"
   width="62.112106mm"
   height="56.458176mm"
   viewBox="0 0 62.112106 56.458174"
   version="1.1"
   id="svg6380"
   inkscape:version="0.92.3pre0 (unknown)"
   sodipodi:docname="pytweezer_viewer_icon.svg">
  <defs
     id="defs6374">
    <clipPath
       id="clipPath5506"
       clipPathUnits="userSpaceOnUse">
      <path
         inkscape:connector-curvature="0"
         id="path5504"
         d="M 556.325,738.829 H 312.504 V 461.082 h 243.821 z" />
    </clipPath>
  </defs>
  <sodipodi:namedview
     id="base"
     pagecolor="#ffffff"
     bordercolor="#666666"
     borderopacity="1.0"
     inkscape:pageopacity="0.0"
     inkscape:pageshadow="2"
     inkscape:zoom="1.4"
     inkscape:cx="-72.216239"
     inkscape:cy="128.58905"
     inkscape:document-units="mm"
     inkscape:current-layer="layer1"
     showgrid="false"
     inkscape:snap-global="false"
     fit-margin-top="0"
     fit-margin-left="0"
     fit-margin-right="0"
     fit-margin-bottom="0"
     inkscape:window-width="1920"
     inkscape:window-height="1043"
     inkscape:window-x="1920"
     inkscape:window-y="0"
     inkscape:window-maximized="1" />
  <metadata
     id="metadata6377">
    <rdf:RDF>
      <cc:Work
         rdf:about="">
        <dc:format>image/svg+xml</dc:format>
        <dc:type
           rdf:resource="http://purl.org/dc/dcmitype/StillImage" />
        <dc:title></dc:title>
      </cc:Work>
    </rdf:RDF>
  </metadata>
  <g
     inkscape:label="Layer 1"
     inkscape:groupmode="layer"
     id="layer1"
     transform="translate(-68.376278,-71.34206)">
    <g
       transform="translate(-0.38729714,-27.113582)"
       id="layer1-5"
       inkscape:label="Layer 1">
      <g
         transform="translate(-103.70058,16.036172)"
         id="g5748">
        <path
           inkscape:connector-curvature="0"
           style="display:inline;fill:#5781bd;fill-opacity:1;fill-rule:evenodd;stroke:none;stroke-width:0.26458332px;stroke-linecap:butt;stroke-linejoin:miter;stroke-opacity:1"
           d="m 195.03037,82.41947 -0.71933,0.859895 -1.20717,3.348633 -0.40514,3.745508 -0.66973,-1.86862 -1.0666,1.86862 1.20716,1.876888 -0.66972,1.339454 -1.20716,-2.273764 -0.27285,2.414323 1.33945,1.471745 -0.52917,1.604037 -1.74459,-1.876888 0.13229,2.009179 1.47174,1.744597 v 1.876883 l -1.0666,-0.669722 -1.7446,-1.339453 0.53744,2.406055 1.74459,1.48001 0.1323,1.87689 -1.61231,-0.27285 -2.14147,-1.33945 1.07487,3.34863 2.00918,0.66973 0.13229,1.47174 -1.74459,0.14056 -0.1323,4.01836 1.20717,0.13229 -0.26459,11.25306 h -2.00918 v 2.27376 l 0.93431,0.14056 v 1.1989 h 1.20716 v 1.74459 h -1.74459 v 2.14147 l 15.67656,0.1323 v -2.14148 h -1.7446 v -1.73632 h 1.20716 v -1.20716 l 0.93431,-0.1323 v -2.28203 h -2.00918 l -0.26458,-11.25306 1.20716,-0.13229 -0.13229,-4.01836 -1.7446,-0.13229 0.1323,-1.48001 2.00918,-0.66973 1.07487,-3.34863 -2.14148,1.33945 -1.6123,0.27285 0.13229,-1.87689 1.7446,-1.47174 0.53743,-2.414323 -1.74459,1.339453 -1.06661,0.66973 v -1.876892 l 1.47175,-1.736328 0.13229,-2.009179 -1.7446,1.868619 -0.52916,-1.604036 1.33945,-1.471745 -0.27285,-2.414323 -1.20716,2.282031 -0.66973,-1.339453 1.20716,-1.876888 -1.0666,-1.876888 -0.66972,1.876888 -0.40515,-3.753776 -1.49655,-3.811654 z m -2.04225,10.938867 h 3.55534 v 0.463021 h -3.55534 z m 4.19199,2.852539 v 0.463021 l -4.72116,0.115755 v -0.463021 z m 0.58705,3.439584 0.17363,0.57878 -5.71335,0.0579 -0.0579,-0.520902 z m -6.00274,3.43958 6.58151,0.0579 0.0579,0.5209 -6.69726,-0.0579 z m 7.16856,3.72897 0.11575,0.63666 -8.21862,0.11575 -0.0579,-0.46302 z m -5.42396,7.80521 2.56315,0.11576 1.4056,1.81074 0.11575,10.55026 -5.42396,-0.0579 -0.40514,-10.26087 z"
           id="path2406" />
        <path
           inkscape:connector-curvature="0"
           style="display:inline;fill:#5781bd;fill-opacity:1;fill-rule:evenodd;stroke:none;stroke-width:0.26458332px;stroke-linecap:butt;stroke-linejoin:miter;stroke-opacity:1"
           d="m 174.17455,131.26136 -0.13397,-2.00949 2.14346,-1.33967 0.4019,-3.88502 c 0,0 -3.49636,-2.49983 -4.01899,-4.15295 -0.46606,-1.47422 0.8038,-5.09072 0.8038,-5.09072 0,0 0.34049,2.58878 1.07173,3.34916 0.65214,0.67813 2.94726,1.07173 2.94726,1.07173 0,0 -1.77992,-2.20014 -2.0095,-3.34916 -0.2706,-1.35438 0.66984,-4.55485 0.66984,-4.55485 0,0 0.86717,2.70832 1.74156,3.48312 0.44717,0.39624 1.87553,0.66983 1.87553,0.66983 l 0.13396,-1.74156 c 0,0 -1.57313,-1.24231 -1.87553,-2.00949 -0.42739,-1.08432 0,-3.88502 0,-3.88502 0,0 0.77862,2.16158 1.47363,2.81329 0.28874,0.27075 1.2057,0.53586 1.2057,0.53586 l 0.66983,-2.27742 c 0,0 -1.12216,-0.81456 -1.33966,-1.33967 -0.35374,-0.854 0,-3.08122 0,-3.08122 0,0 0.5913,2.01611 1.33966,2.27743 0.52849,0.18454 1.74156,-0.66983 1.74156,-0.66983 0,0 -1.34042,-1.17248 -1.47363,-1.87553 -0.15622,-0.82452 0.8038,-2.67933 0.8038,-2.67933 l 1.6076,2.8133 v -1.87553 l -0.8038,-1.74156 2.67932,-2.411391 0.13397,32.955691 z"
           id="path2404"
           sodipodi:nodetypes="ccccscscscsccscsccscscsccccccc" />
        <path
           inkscape:connector-curvature="0"
           sodipodi:nodetypes="ccccscscscsccscsccscscsccccccc"
           id="path2417"
           d="m 216.30623,131.49914 0.13397,-2.00949 -2.14346,-1.33967 -0.4019,-3.88502 c 0,0 3.49636,-2.49983 4.01899,-4.15295 0.46606,-1.47422 -0.8038,-5.09072 -0.8038,-5.09072 0,0 -0.34049,2.58878 -1.07173,3.34916 -0.65214,0.67813 -2.94726,1.07173 -2.94726,1.07173 0,0 1.77992,-2.20014 2.0095,-3.34916 0.2706,-1.35438 -0.66984,-4.55485 -0.66984,-4.55485 0,0 -0.86717,2.70832 -1.74156,3.48312 -0.44717,0.39624 -1.87553,0.66983 -1.87553,0.66983 l -0.13396,-1.74156 c 0,0 1.57313,-1.24231 1.87553,-2.00949 0.42739,-1.08432 0,-3.88502 0,-3.88502 0,0 -0.77862,2.16158 -1.47363,2.81329 -0.28874,0.27075 -1.2057,0.53586 -1.2057,0.53586 l -0.66983,-2.27742 c 0,0 1.12216,-0.81456 1.33966,-1.33967 0.35374,-0.854 0,-3.08122 0,-3.08122 0,0 -0.5913,2.01611 -1.33966,2.27743 -0.52849,0.18454 -1.74156,-0.66984 -1.74156,-0.66984 0,0 1.34042,-1.17247 1.47363,-1.87552 0.15622,-0.82452 -0.8038,-2.67933 -0.8038,-2.67933 l -1.6076,2.8133 v -1.87553 l 0.8038,-1.74156 -2.67932,-2.411394 -0.13397,32.955694 z"
           style="display:inline;fill:#5781bd;fill-opacity:1;fill-rule:evenodd;stroke:none;stroke-width:0.26458332px;stroke-linecap:butt;stroke-linejoin:miter;stroke-opacity:1" />
        <g
           transform="matrix(0.53299171,0,0,-0.52880424,-20.800135,457.21401)"
           id="g5502"
           clip-path="url(#clipPath5506)"
           style="stroke:#e98300;stroke-width:1.12321687;stroke-miterlimit:4;stroke-dasharray:none;stroke-opacity:1">
          <g
             id="g5908"
             transform="matrix(0.99757111,0,0,1.2176653,595.03286,650.18048)"
             style="stroke:#e98300;stroke-width:2.06215405;stroke-miterlimit:4;stroke-dasharray:none;stroke-opacity:1">
            <g
               id="g5912"
               transform="translate(-80.546139,1.306286)"
               style="stroke:#e98300;stroke-width:2.06215405;stroke-miterlimit:4;stroke-dasharray:none;stroke-opacity:1">
              <g
                 id="g5916"
                 transform="translate(-53.134,-0.704)"
                 style="stroke:#e98300;stroke-width:2.06215405;stroke-miterlimit:4;stroke-dasharray:none;stroke-opacity:1">
                <g
                   id="g5920"
                   transform="translate(-50.408,-4.487)"
                   style="stroke:#e98300;stroke-width:2.06215405;stroke-miterlimit:4;stroke-dasharray:none;stroke-opacity:1">
                  <path
                     d="M 0,0 0.088,-0.968 V -2.023 L 0.176,-2.991 V -3.958 L 0.264,-5.014 V -6.07 L 0.352,-7.125 V -8.181 L 0.44,-9.325 v -1.143 L 0.528,-11.7 v -1.232 l 0.088,-1.231 0.088,-1.232 v -1.319 l 0.088,-1.232 v -1.32 l 0.088,-1.143 v -1.056 l 0.088,-0.571823 v -0.703 l 0.088,-0.264 v -0.088 l 0.088,0.264 0.088,0.44 v 0.615 L 1.32,-21.289 v 0.704 l 0.088,0.791 v 0.793 l 0.088,0.791 v 0.704 l 0.087,0.704 v 0.703 l 0.089,0.616 0.088,0.616 v 0.528 l 0.088,0.527 v 0.528 l 0.088,0.44 v 0.44 l 0.087,0.44 v 0.44 l 0.088,0.352 v 0.352 l 0.089,0.352 0.088,0.351 v 0.264 L 2.375,-9.5 v 0.263 l 0.088,0.264 v 0.264 l 0.088,0.264 v 0.264 l 0.089,0.264 v 0.176 l 0.088,0.263 0.087,0.177 v 0.263 l 0.088,0.176 v 0.176 l 0.088,0.176 v 0.176 l 0.088,0.176 v 0.176 l 0.088,0.176 v 0.088 l 0.088,0.176 v 0.176 l 0.088,0.088 0.088,0.176 v 0.088 l 0.088,0.176 v 0.088 l 0.088,0.176 v 0.088 l 0.088,0.088 v 0.087 l 0.088,0.176 v 0.089 l 0.088,0.088 0.088,0.087 v 0.088 l 0.088,0.088 v 0.088 l 0.088,0.088 v 0.088 l 0.088,0.088 v 0.088 l 0.088,0.088 v 0.088 l 0.088,0.088 0.088,0.088 v 0.088 l 0.176,0.176 v 0.088 l 0.087,0.088 0.088,0.088 v 0.088 l 0.089,0.088 h 0.088 v 0.088 h 0.088 v 0.088 l 0.087,0.087 0.088,0.089 0.089,0.088 v 0.088 h 0.088 l 0.175,0.175 0.088,0.089 0.088,0.088 h 0.089 v 0.087 h 0.087 v 0.088 H 6.07 l 0.088,0.088 h 0.088 v 0.088 h 0.088 l 0.088,0.089 H 6.51 v 0.087 h 0.176 v 0.088 h 0.176 v 0.088 h 0.176 v 0.088 h 0.176 l 0.088,0.088 h 0.176 l 0.088,0.088 H 7.83 l 0.087,0.088 H 8.973 V -0.352 H 9.237 V -0.44 h 0.176 v -0.088 h 0.088 l 0.088,-0.088 h 0.088 v -0.088 h 0.088 v -0.088 h 0.088 l 0.088,-0.087 v -0.089 h 0.088 v -0.088 l 0.088,-0.088 v -0.088 l 0.088,-0.087 v -0.088 l 0.088,-0.089 v -0.087 l 0.176,-0.176 v -0.177 l 0.088,-0.087 v -0.176 l 0.088,-0.176 v -0.176 l 0.087,-0.176 v -0.264 l 0.089,-0.176 v -0.352 l 0.088,-0.264 0.088,-0.352 v -0.351 l 0.088,-0.44 v -0.528 l 0.087,-0.616 v -0.703 l 0.088,-0.88 v -1.056 l 0.089,-1.32 V -11.7 l 0.088,-2.2 v -2.99 l 0.087,-3.959 0.088,-2.463 v 5.014 l 0.088,7.478 v 6.862 l 0.088,6.333 v 6.51 l 0.088,7.566 v 10.38 l 0.088,22.345 V 32.637 l 0.088,-8.181 0.088,-4.31 v -2.815 l 0.088,-1.936 v -1.408 l 0.088,-1.231 v -0.88 l 0.088,-0.792 V 10.469 L 12.492,9.941 V 9.413 L 12.58,9.061 12.668,8.621 V 8.357 L 12.756,8.005 V 7.83 L 12.844,7.565 V 7.39 L 12.932,7.125 V 6.95 L 13.02,6.862 V 6.686 L 13.108,6.51 13.196,6.422 V 6.334 L 13.284,6.158 V 6.07 L 13.372,5.982 V 5.894 L 13.46,5.806 V 5.718 L 13.548,5.63 13.636,5.542 13.724,5.454 13.812,5.366 V 5.278 h 0.087 V 5.19 h 0.088 V 5.102 h 0.089 V 5.015 h 0.088 l 0.087,-0.089 h 0.088 V 4.838 h 0.176 V 4.75 h 0.176 V 4.663 h 0.176 V 4.575 h 0.264 V 4.487 h 0.352 V 4.398 h 0.44 V 4.31 h 0.703 V 4.223 h 1.496 L 18.21,4.135 h 2.816 l 0.086,0.088 h 4.224 V 4.31 h 3.958 v 0.088 h 4.662 l 0.088,0.089 h 5.63 l 0.089,0.088"
                     style="fill:none;stroke:#e98300;stroke-width:2.06215405;stroke-linecap:round;stroke-linejoin:round;stroke-miterlimit:4;stroke-dasharray:none;stroke-opacity:1"
                     id="path5922"
                     inkscape:connector-curvature="0"
                     sodipodi:nodetypes="cccccccccccccccccccccccccccccccccccccccccccccccccccccccccccccccccccccccccccccccccccccccccccccccccccccccccccccccccccccccccccccccccccccccccccccccccccccccccccccccccccccccccccccccccccccccccccccccccccccccccccccccccccccccccccccccccccccccccccccccccccccccccccccccccccccccccc" />
                  <g
                     id="g5924"
                     transform="translate(-47.415,7.125)"
                     style="stroke:#e98300;stroke-width:2.06215405;stroke-miterlimit:4;stroke-dasharray:none;stroke-opacity:1">
                    <path
                       d="m 0,0 h 0.176 l 0.088,-0.088 h 0.792 l 0.088,-0.088 h 0.703 l 0.088,-0.088 h 0.704 l 0.088,-0.087 h 0.792 l 0.087,-0.088 h 0.968 v -0.088 h 2.024 l 0.087,0.088 h 0.088 v 0.088 h 0.088 v 0.175 L 6.95,0.088 v 2.2 l 0.088,-4.223 v 0.792 l 0.087,0.176 0.088,0.088 v 0.087 h 0.088 v 0.088 h 0.264 l 0.088,0.089 h 0.616 v 0.088 h 0.352 v 3.87 l 0.088,-3.782 h 0.264 v 0.088 h 0.176 v 0.087 h 0.176 v 0.088 h 0.088 v 0.088 H 9.5 V 0 H 9.588 V 0.088 L 9.677,0.176 V 0.264 L 9.765,0.352 V 0.528 L 9.853,0.704 9.94,0.968 v 0.264 l 0.088,0.44 v 0.616 l 0.088,1.143 V 5.63 l 0.089,7.742 V -2.287 l 0.088,-11.524 v 6.686 l 0.087,2.111 0.088,1.056 v 0.615 l 0.088,0.44 v 0.264 l 0.088,0.264 v 0.176 l 0.088,0.088 v 0.088 l 0.088,0.176 0.176,0.176 v 0.088 h 0.088 v 0.088 h 0.088 v 0.088 h 0.088 l 0.088,0.088 h 0.176 v 0.088 H 11.7 l 0.088,0.088 h 0.264 v 0.088 h 0.263 l 0.089,0.088 h 0.351 l 0.088,0.088 h 0.352 v 0.087 h 0.265 l 0.087,0.088 h 0.264 l 0.088,0.089 h 0.176 l 0.088,0.088 h 0.176 l 0.088,0.088 h 0.176 v 0.088 h 0.176 l 0.088,0.087 h 0.088 v 0.088 h 0.088 l 0.088,0.088 h 0.088 V 0 h 0.088 l 0.088,0.088 h 0.087 v 0.088 h 0.089 v 0.088 l 0.264,0.264 0.087,0.088 v 0.088 l 0.088,0.088 0.089,0.088 v 0.088 l 0.087,0.176 v 0.088 l 0.088,0.088 v 0.176 l 0.088,0.088 0.088,0.176 v 0.176 l 0.088,0.176 v 0.176 l 0.088,0.263 v 0.265 l 0.088,0.263 v 0.352 l 0.088,0.352 v 0.44 l 0.088,0.528 0.088,0.616 v 0.791 l 0.088,0.968 v 1.319 l 0.088,1.76 v 2.551 l 0.088,4.223 v 9.061 l 0.088,9.501 V 14.076 l 0.088,-11.26 0.088,-9.765 v -10.909 l 0.088,-12.404 v 5.366 l 0.088,6.159 v 3.518 l 0.088,2.288 v 1.583 l 0.088,1.232 v 0.968 l 0.088,0.703 v 0.616 l 0.088,0.528 0.088,0.44 v 0.351 l 0.088,0.264 v 0.352 l 0.088,0.176 v 0.264 l 0.088,0.176 v 0.176 l 0.088,0.176 v 0.176 l 0.087,0.088 0.088,0.176 v 0.088 l 0.088,0.176 v 0.088 l 0.089,0.088 v 0.175 l 0.088,0.265 V -5.19 l 0.087,1.144 v 0.175 l 0.088,0.089 0.088,0.088 0.088,0.088 v 0.088 h 0.088 v 0.087 h 0.088 v 0.088 h 0.088 v 0.088 l 0.088,2.551 h 0.264 v -0.088 h 0.176 l 0.088,-0.087 h 0.088 v -1.848 l 0.088,2.023 v -0.088 l 0.088,-0.087 0.088,-0.088 v -0.088 l 0.088,-0.176 v -0.176 l 0.088,-0.44 v -0.968 l 0.088,-6.333 0.088,13.987 V 1.496 L 20.936,0.792 V 0.44 L 21.025,0.264 V 0.088 L 21.113,0 l 0.088,-0.088 0.088,-0.088 h 0.175 l 0.089,-0.088 h 2.903 v 0.088 h 1.583 v 0.088 h 1.319 V 0 h 1.056 l 0.088,0.088 h 0.88 v 0.088 h 0.88 v 0.088 h 0.703 l 0.088,0.088 h 0.352 l 0.088,0.616 V 0.352 h 0.264 V 0.44 h 0.616 v 0.088 h 0.528 l 0.088,0.088 h 0.44 l 0.088,0.088 h 0.439 v 0.088 h 0.44 l 0.088,0.088 h 0.264 l 0.088,0.088 h 0.352 l 0.088,0.088 h 0.264 v 0.088 l 0.088,-0.088 0.088,0.088 h 0.176 l 0.087,0.088 h 0.265 l 0.087,0.088 h 0.264 v 0.088 h 0.264 v 0.088 h 0.176 l 0.088,0.088 h 0.264 v 0.088 h 0.176 l 0.088,0.088 h 0.176 v 0.088 h 0.176 l 0.088,0.088 h 0.176 v 0.088 h 0.176 l 0.088,0.088 h 0.088 V 2.2 h 0.175 l 0.089,0.088 h 0.088 l 0.088,0.087 h 0.088 v 0.088 h 0.175 l 0.089,0.088 h 0.088 V 2.64 h 0.087 l 0.088,0.088 h 0.088 v 0.088 h 0.088 l 0.089,0.087 h 0.087 v 0.088 h 0.088 l 0.088,0.088 0.088,0.088 h 0.088 l 0.088,0.088 0.088,0.088 0.176,0.176 h 0.088 v 0.088 h 0.088 l 0.088,0.088 0.088,0.088 v 0.088 h 0.088 v 0.088 h 0.088 v 0.088 h 0.088 v 0.088 h 0.088 l 0.087,0.088 v 0.088 h 0.089 v 0.088 l 0.088,0.088 0.088,0.088 v 0.088 h 0.088 v 0.088 l 0.087,0.088 0.088,0.088 0.089,0.088 v 0.088 l 0.088,0.088 v 0.088 h 0.088 v 0.088 l 0.087,0.088 v 0.088 l 0.088,0.087 v 0.088 l 0.089,0.089 0.087,0.088 v 0.088 l 0.088,0.087 v 0.088 l 0.088,0.088 v 0.088 l 0.088,0.088 v 0.176 l 0.088,0.088 v 0.088 l 0.088,0.088 0.088,0.176 v 0.088 l 0.088,0.088 V 7.39 l 0.088,0.088 v 0.176 l 0.088,0.088 v 0.175 l 0.088,0.089 v 0.176 l 0.088,0.176 0.088,0.175 V 8.71 l 0.088,0.087 v 0.176 l 0.088,0.264 v 0.176 l 0.088,0.176 v 0.176 l 0.088,0.264 v 0.176 l 0.088,0.264 0.088,0.176 v 0.264 l 0.088,0.264 v 0.264 l 0.088,0.263 v 0.264 l 0.088,0.352 v 0.352 l 0.088,0.264 v 0.352 l 0.088,0.44 0.087,0.352 v 0.44 l 0.089,0.439 v 0.44 l 0.088,0.528 v 0.528 l 0.087,0.528 v 0.616 l 0.088,0.703 v 0.704 l 0.088,0.792 v 0.792 l 0.089,0.967 0.088,0.968 v 1.144 l 0.087,1.319 v 1.495 l 0.088,1.672 v 2.023 l 0.088,2.288 v 2.815 l 0.088,3.255 v 3.431 l 0.088,1.495 0.088,-2.111 v -3.871 l 0.088,-3.783 v -3.255 l 0.088,-2.815 V 25.16 l 0.088,-2.111 v -1.936 l 0.088,-1.847 v -1.583 l 0.088,-1.584 0.088,-1.407 v -1.32 l 0.088,-1.32 V 10.821 L 46.624,9.677 V 8.533 L 46.712,7.478 V 6.422 L 46.8,5.367 V 4.311 L 46.888,3.343 46.976,2.375 V 1.408 L 47.064,0.44 v -0.967 l 0.088,-0.968 v -0.968 l 0.088,-0.88 V -4.31 l 0.088,-0.968 v -0.968 l 0.087,-0.879"
                       style="fill:none;stroke:#e98300;stroke-width:2.06215405;stroke-linecap:round;stroke-linejoin:round;stroke-miterlimit:4;stroke-dasharray:none;stroke-opacity:1"
                       id="path5926"
                       inkscape:connector-curvature="0" />
                  </g>
                </g>
              </g>
            </g>
          </g>
        </g>
      </g>
    </g>
    <g
       transform="matrix(0.0556629,0,0,0.0556629,101.98898,104.64447)"
       id="g4"
       style="fill:#747678;fill-opacity:1">
      <path
         inkscape:connector-curvature="0"
         d="M 256,96 C 144.341,96 47.559,161.021 0,256 47.559,350.979 144.341,416 256,416 367.656,416 464.439,350.979 512,256 464.441,161.021 367.656,96 256,96 Z m 126.225,84.852 c 30.082,19.187 55.572,44.887 74.719,75.148 -19.146,30.261 -44.639,55.961 -74.719,75.148 C 344.428,355.257 300.779,368 256,368 211.22,368 167.572,355.257 129.775,331.148 99.695,311.96 74.205,286.26 55.058,256 c 19.146,-30.262 44.637,-55.962 74.717,-75.148 1.959,-1.25 3.938,-2.461 5.929,-3.65 C 130.725,190.866 128,205.613 128,221 c 0,70.691 57.308,128 128,128 70.691,0 128,-57.309 128,-128 0,-15.387 -2.725,-30.134 -7.703,-43.799 1.988,1.189 3.969,2.401 5.928,3.651 z M 256,205 c 0,26.51 -21.49,48 -48,48 -26.51,0 -48,-21.49 -48,-48 0,-26.51 21.49,-48 48,-48 26.51,0 48,21.49 48,48 z"
         id="path2"
         style="fill:#747678;fill-opacity:1" />
    </g>
  </g>
</svg>
